<?xml version="1.0" encoding="UTF-8" standalone="no"?>
<!-- Created with Inkscape (http://www.inkscape.org/) -->

<svg
   width="32"
   height="32"
   viewBox="0 0 8.4666665 8.4666669"
   version="1.1"
   id="svg20249"
   inkscape:version="1.1 (c4e8f9ed74, 2021-05-24)"
   sodipodi:docname="theguest.svg"
   xmlns:inkscape="http://www.inkscape.org/namespaces/inkscape"
   xmlns:sodipodi="http://sodipodi.sourceforge.net/DTD/sodipodi-0.dtd"
   xmlns:xlink="http://www.w3.org/1999/xlink"
   xmlns="http://www.w3.org/2000/svg"
   xmlns:svg="http://www.w3.org/2000/svg"
   xmlns:rdf="http://www.w3.org/1999/02/22-rdf-syntax-ns#"
   xmlns:cc="http://creativecommons.org/ns#"
   xmlns:dc="http://purl.org/dc/elements/1.1/">
  <defs
     id="defs20243">
    <linearGradient
       inkscape:collect="always"
       xlink:href="#linearGradient1492"
       id="linearGradient822-7-4-2-8-0"
       x1="4.6862917"
       y1="35.595917"
       x2="27.313709"
       y2="-3.5959179"
       gradientUnits="userSpaceOnUse"
       gradientTransform="matrix(0.26458333,0,0,0.26458333,75.629306,277.46175)" />
    <linearGradient
       inkscape:collect="always"
       id="linearGradient1492">
      <stop
         style="stop-color:#320000;stop-opacity:1"
         offset="0"
         id="stop1488" />
      <stop
         style="stop-color:#640012;stop-opacity:1"
         offset="1"
         id="stop1490" />
    </linearGradient>
  </defs>
  <sodipodi:namedview
     id="base"
     pagecolor="#ffffff"
     bordercolor="#666666"
     borderopacity="1.0"
     inkscape:pageopacity="0.0"
     inkscape:pageshadow="2"
     inkscape:zoom="7.919596"
     inkscape:cx="15.467961"
     inkscape:cy="23.422912"
     inkscape:document-units="mm"
     inkscape:current-layer="layer1"
     showgrid="true"
     units="px"
     inkscape:window-width="2560"
     inkscape:window-height="1404"
     inkscape:window-x="3840"
     inkscape:window-y="725"
     inkscape:window-maximized="1"
     inkscape:pagecheckerboard="0">
    <inkscape:grid
       type="xygrid"
       id="grid20794"
       empspacing="4" />
    <inkscape:grid
       type="xygrid"
       id="grid20796"
       empspacing="1"
       originy="0.13229167"
       originx="0.13229167"
       dotted="true" />
  </sodipodi:namedview>
  <metadata
     id="metadata20246">
    <rdf:RDF>
      <cc:Work
         rdf:about="">
        <dc:format>image/svg+xml</dc:format>
        <dc:type
           rdf:resource="http://purl.org/dc/dcmitype/StillImage" />
      </cc:Work>
    </rdf:RDF>
  </metadata>
  <g
     inkscape:label="Layer 1"
     inkscape:groupmode="layer"
     id="layer1"
     transform="translate(0,-288.53332)">
    <ellipse
       style="opacity:1;fill:url(#linearGradient822-7-4-2-8-0);fill-opacity:1;stroke:none;stroke-width:0.264583;stroke-linecap:round;stroke-linejoin:round;stroke-miterlimit:4;stroke-dasharray:none;stroke-dashoffset:0;stroke-opacity:1;paint-order:normal"
       id="path814-0-22-5-0-2"
       cx="79.862587"
       cy="281.69492"
       inkscape:export-filename="/home/victor/newcontemporary.png"
       inkscape:export-xdpi="2165.5593"
       inkscape:export-ydpi="2165.5593"
       transform="rotate(15)"
       rx="4.2329998"
       ry="4.2333331" />
    <path
       style="opacity:1;fill:#000000;fill-opacity:1;stroke:none;stroke-width:0.360358;stroke-linecap:round;stroke-linejoin:round;stroke-miterlimit:4;stroke-dasharray:none;stroke-dashoffset:0;stroke-opacity:1;paint-order:normal"
       d="m 4.5072048,291.74437 c -0.56634,-0.15175 -1.1444399,0.18202 -1.2961902,0.74835 l -1.0594306,3.95382 a 4.2333333,4.2333333 0 0 0 0.9860311,0.40919 4.2333333,4.2333333 0 0 0 5.1847796,-2.99343 4.2333333,4.2333333 0 0 0 0.1406491,-1.05798 z"
       id="rect824-2-47-1-3-0"
       inkscape:connector-curvature="0"
       inkscape:export-filename="/home/victor/newcontemporary.png"
       inkscape:export-xdpi="2165.5593"
       inkscape:export-ydpi="2165.5593" />
    <path
       id="rect824-2-47-1-3-0-3"
       style="fill:#ffffff;fill-opacity:1;stroke:none;stroke-width:0.360357;stroke-linecap:round;stroke-linejoin:round;stroke-miterlimit:4;stroke-dasharray:none;stroke-dashoffset:0;stroke-opacity:1;paint-order:normal"
       d="m 6.057575,293.256 c -0.9405436,-0.23758 -1.9892972,0.27013 -2.3932323,1.14883 -0.4183418,0.83969 -0.1807783,1.94202 0.5494818,2.52956 0.025584,0.0225 0.052233,0.044 0.078881,0.065 A 4.2333333,4.2333333 0 0 0 7.2888293,295.697 c -0.5002117,-0.28719 -0.9980617,-0.57942 -1.4998439,-0.86358 -0.2640182,-0.1281 -0.5978629,0.0152 -0.7101969,0.2805 -0.2833679,0.49086 -0.5664758,0.98164 -0.8498342,1.4725 -0.6253852,-0.63001 -0.6777038,-1.71931 -0.1176858,-2.40798 0.4423855,-0.58008 1.238004,-0.84697 1.9408548,-0.65052 l -1.338e-4,5e-4 c 0.8861005,0.19425 1.5223902,1.21613 1.3439658,2.0523 a 4.2333333,4.2333333 0 0 0 0.2903061,-0.36465 c -0.00999,-0.23703 -0.060658,-0.47211 -0.1545575,-0.69304 -0.2435086,-0.61348 -0.789081,-1.09454 -1.429704,-1.25512 -0.014872,-0.004 -0.029496,-0.008 -0.044425,-0.0119 z" />
  </g>
</svg>
